<mxfile host="Electron" agent="Mozilla/5.0 (Windows NT 10.0; Win64; x64) AppleWebKit/537.36 (KHTML, like Gecko) draw.io/24.7.17 Chrome/128.0.6613.36 Electron/32.0.1 Safari/537.36" version="24.7.17">
  <diagram name="Page-1" id="fXVnGn2xbe9QzO3fEq7c">
    <mxGraphModel dx="3100" dy="828" grid="1" gridSize="10" guides="1" tooltips="1" connect="1" arrows="1" fold="1" page="1" pageScale="1" pageWidth="850" pageHeight="1100" math="0" shadow="0">
      <root>
        <mxCell id="0" />
        <mxCell id="1" style="" parent="0" />
        <mxCell id="3Ay0K59js-raSexYKxOz-1" value="AWS Cloud" style="points=[[0,0],[0.25,0],[0.5,0],[0.75,0],[1,0],[1,0.25],[1,0.5],[1,0.75],[1,1],[0.75,1],[0.5,1],[0.25,1],[0,1],[0,0.75],[0,0.5],[0,0.25]];outlineConnect=0;gradientColor=none;html=1;whiteSpace=wrap;fontSize=12;fontStyle=0;container=1;pointerEvents=0;collapsible=0;recursiveResize=0;shape=mxgraph.aws4.group;grIcon=mxgraph.aws4.group_aws_cloud_alt;strokeColor=#232F3E;fillColor=none;verticalAlign=top;align=left;spacingLeft=30;fontColor=#232F3E;dashed=0;" parent="1" vertex="1">
          <mxGeometry x="-1152" y="60" width="1145" height="750" as="geometry" />
        </mxCell>
        <mxCell id="3Ay0K59js-raSexYKxOz-2" value="N.Verginia" style="points=[[0,0],[0.25,0],[0.5,0],[0.75,0],[1,0],[1,0.25],[1,0.5],[1,0.75],[1,1],[0.75,1],[0.5,1],[0.25,1],[0,1],[0,0.75],[0,0.5],[0,0.25]];outlineConnect=0;gradientColor=none;html=1;whiteSpace=wrap;fontSize=12;fontStyle=0;container=1;pointerEvents=0;collapsible=0;recursiveResize=0;shape=mxgraph.aws4.group;grIcon=mxgraph.aws4.group_region;strokeColor=#00A4A6;fillColor=none;verticalAlign=top;align=left;spacingLeft=30;fontColor=#147EBA;dashed=1;" parent="3Ay0K59js-raSexYKxOz-1" vertex="1">
          <mxGeometry x="37" y="48" width="1060" height="672" as="geometry" />
        </mxCell>
        <mxCell id="3Ay0K59js-raSexYKxOz-3" value="VPC" style="points=[[0,0],[0.25,0],[0.5,0],[0.75,0],[1,0],[1,0.25],[1,0.5],[1,0.75],[1,1],[0.75,1],[0.5,1],[0.25,1],[0,1],[0,0.75],[0,0.5],[0,0.25]];outlineConnect=0;gradientColor=none;html=1;whiteSpace=wrap;fontSize=12;fontStyle=0;container=1;pointerEvents=0;collapsible=0;recursiveResize=0;shape=mxgraph.aws4.group;grIcon=mxgraph.aws4.group_vpc2;strokeColor=#8C4FFF;fillColor=none;verticalAlign=top;align=left;spacingLeft=30;fontColor=#AAB7B8;dashed=0;" parent="3Ay0K59js-raSexYKxOz-2" vertex="1">
          <mxGeometry x="49" y="48" width="965" height="592" as="geometry" />
        </mxCell>
        <mxCell id="3Ay0K59js-raSexYKxOz-4" value="Private subnet 2" style="points=[[0,0],[0.25,0],[0.5,0],[0.75,0],[1,0],[1,0.25],[1,0.5],[1,0.75],[1,1],[0.75,1],[0.5,1],[0.25,1],[0,1],[0,0.75],[0,0.5],[0,0.25]];outlineConnect=0;html=1;whiteSpace=wrap;fontSize=12;fontStyle=0;container=1;pointerEvents=0;collapsible=0;recursiveResize=0;shape=mxgraph.aws4.group;grIcon=mxgraph.aws4.group_security_group;grStroke=0;verticalAlign=top;align=left;spacingLeft=30;dashed=0;fillColor=#1A1A1A;" parent="3Ay0K59js-raSexYKxOz-3" vertex="1">
          <mxGeometry x="570" y="210" width="310" height="330" as="geometry" />
        </mxCell>
        <mxCell id="3Ay0K59js-raSexYKxOz-5" value="" style="sketch=0;outlineConnect=0;fontColor=#232F3E;gradientColor=none;fillColor=#C925D1;strokeColor=none;dashed=0;verticalLabelPosition=bottom;verticalAlign=top;align=center;html=1;fontSize=12;fontStyle=0;aspect=fixed;pointerEvents=1;shape=mxgraph.aws4.rds_instance;" parent="3Ay0K59js-raSexYKxOz-4" vertex="1">
          <mxGeometry x="58" y="258" width="40" height="40" as="geometry" />
        </mxCell>
        <mxCell id="3Ay0K59js-raSexYKxOz-6" value="RDS Stand-by" style="text;html=1;align=center;verticalAlign=middle;whiteSpace=wrap;rounded=0;" parent="3Ay0K59js-raSexYKxOz-4" vertex="1">
          <mxGeometry x="48" y="300" width="80" height="30" as="geometry" />
        </mxCell>
        <mxCell id="3Ay0K59js-raSexYKxOz-7" value="Public subnet 1" style="points=[[0,0],[0.25,0],[0.5,0],[0.75,0],[1,0],[1,0.25],[1,0.5],[1,0.75],[1,1],[0.75,1],[0.5,1],[0.25,1],[0,1],[0,0.75],[0,0.5],[0,0.25]];outlineConnect=0;html=1;whiteSpace=wrap;fontSize=12;fontStyle=0;container=1;pointerEvents=0;collapsible=0;recursiveResize=0;shape=mxgraph.aws4.group;grIcon=mxgraph.aws4.group_security_group;grStroke=0;verticalAlign=top;align=left;spacingLeft=30;dashed=0;fillColor=#1A1A1A;" parent="3Ay0K59js-raSexYKxOz-3" vertex="1">
          <mxGeometry x="51" y="39" width="329" height="151" as="geometry" />
        </mxCell>
        <mxCell id="3Ay0K59js-raSexYKxOz-8" value="" style="sketch=0;outlineConnect=0;fontColor=#232F3E;gradientColor=none;fillColor=#8C4FFF;strokeColor=none;dashed=0;verticalLabelPosition=bottom;verticalAlign=top;align=center;html=1;fontSize=12;fontStyle=0;aspect=fixed;pointerEvents=1;shape=mxgraph.aws4.nat_gateway;" parent="3Ay0K59js-raSexYKxOz-7" vertex="1">
          <mxGeometry x="30" y="50" width="45" height="45" as="geometry" />
        </mxCell>
        <mxCell id="3Ay0K59js-raSexYKxOz-9" value="Nat Gateway" style="text;html=1;align=center;verticalAlign=middle;whiteSpace=wrap;rounded=0;" parent="3Ay0K59js-raSexYKxOz-7" vertex="1">
          <mxGeometry x="7.5" y="95" width="90" height="30" as="geometry" />
        </mxCell>
        <mxCell id="3Ay0K59js-raSexYKxOz-10" value="&lt;font color=&quot;#ffffff&quot;&gt;Private subnet 1&lt;/font&gt;" style="points=[[0,0],[0.25,0],[0.5,0],[0.75,0],[1,0],[1,0.25],[1,0.5],[1,0.75],[1,1],[0.75,1],[0.5,1],[0.25,1],[0,1],[0,0.75],[0,0.5],[0,0.25]];outlineConnect=0;html=1;whiteSpace=wrap;fontSize=12;fontStyle=0;container=1;pointerEvents=0;collapsible=0;recursiveResize=0;shape=mxgraph.aws4.group;grIcon=mxgraph.aws4.group_security_group;grStroke=0;verticalAlign=top;align=left;spacingLeft=30;strokeWidth=15;fillColor=#1A1A1A;strokeColor=default;fontColor=#333333;" parent="3Ay0K59js-raSexYKxOz-3" vertex="1">
          <mxGeometry x="54" y="210" width="326" height="350" as="geometry" />
        </mxCell>
        <mxCell id="3Ay0K59js-raSexYKxOz-11" value="" style="sketch=0;outlineConnect=0;fontColor=#232F3E;gradientColor=none;fillColor=#C925D1;strokeColor=none;dashed=0;verticalLabelPosition=bottom;verticalAlign=top;align=center;html=1;fontSize=12;fontStyle=0;aspect=fixed;pointerEvents=1;shape=mxgraph.aws4.rds_instance;" parent="3Ay0K59js-raSexYKxOz-10" vertex="1">
          <mxGeometry x="211" y="273" width="40" height="40" as="geometry" />
        </mxCell>
        <mxCell id="3Ay0K59js-raSexYKxOz-12" value="RDS primary" style="text;html=1;align=center;verticalAlign=middle;whiteSpace=wrap;rounded=0;" parent="3Ay0K59js-raSexYKxOz-10" vertex="1">
          <mxGeometry x="191" y="312" width="80" height="30" as="geometry" />
        </mxCell>
        <mxCell id="3Ay0K59js-raSexYKxOz-13" value="Auto Scaling group" style="points=[[0,0],[0.25,0],[0.5,0],[0.75,0],[1,0],[1,0.25],[1,0.5],[1,0.75],[1,1],[0.75,1],[0.5,1],[0.25,1],[0,1],[0,0.75],[0,0.5],[0,0.25]];outlineConnect=0;gradientColor=none;html=1;whiteSpace=wrap;fontSize=12;fontStyle=0;container=1;pointerEvents=0;collapsible=0;recursiveResize=0;shape=mxgraph.aws4.groupCenter;grIcon=mxgraph.aws4.group_auto_scaling_group;grStroke=1;strokeColor=#D86613;fillColor=none;verticalAlign=top;align=center;fontColor=#D86613;dashed=1;spacingTop=25;" parent="3Ay0K59js-raSexYKxOz-10" vertex="1">
          <mxGeometry x="22" y="121" width="759" height="130" as="geometry" />
        </mxCell>
        <mxCell id="3Ay0K59js-raSexYKxOz-14" value="" style="sketch=0;points=[[0,0,0],[0.25,0,0],[0.5,0,0],[0.75,0,0],[1,0,0],[0,1,0],[0.25,1,0],[0.5,1,0],[0.75,1,0],[1,1,0],[0,0.25,0],[0,0.5,0],[0,0.75,0],[1,0.25,0],[1,0.5,0],[1,0.75,0]];outlineConnect=0;fontColor=#232F3E;fillColor=#ED7100;strokeColor=#ffffff;dashed=0;verticalLabelPosition=bottom;verticalAlign=top;align=center;html=1;fontSize=12;fontStyle=0;aspect=fixed;shape=mxgraph.aws4.resourceIcon;resIcon=mxgraph.aws4.ec2;" parent="3Ay0K59js-raSexYKxOz-13" vertex="1">
          <mxGeometry x="175" y="42" width="32" height="32" as="geometry" />
        </mxCell>
        <mxCell id="3Ay0K59js-raSexYKxOz-15" value="EC2" style="text;html=1;align=center;verticalAlign=middle;whiteSpace=wrap;rounded=0;" parent="3Ay0K59js-raSexYKxOz-13" vertex="1">
          <mxGeometry x="167" y="84" width="40" height="20" as="geometry" />
        </mxCell>
        <mxCell id="3Ay0K59js-raSexYKxOz-16" value="" style="sketch=0;points=[[0,0,0],[0.25,0,0],[0.5,0,0],[0.75,0,0],[1,0,0],[0,1,0],[0.25,1,0],[0.5,1,0],[0.75,1,0],[1,1,0],[0,0.25,0],[0,0.5,0],[0,0.75,0],[1,0.25,0],[1,0.5,0],[1,0.75,0]];outlineConnect=0;fontColor=#232F3E;fillColor=#ED7100;strokeColor=#ffffff;dashed=0;verticalLabelPosition=bottom;verticalAlign=top;align=center;html=1;fontSize=12;fontStyle=0;aspect=fixed;shape=mxgraph.aws4.resourceIcon;resIcon=mxgraph.aws4.ec2;" parent="3Ay0K59js-raSexYKxOz-13" vertex="1">
          <mxGeometry x="118" y="42" width="32" height="32" as="geometry" />
        </mxCell>
        <mxCell id="3Ay0K59js-raSexYKxOz-17" value="EC2" style="text;html=1;align=center;verticalAlign=middle;whiteSpace=wrap;rounded=0;" parent="3Ay0K59js-raSexYKxOz-13" vertex="1">
          <mxGeometry x="110" y="84" width="40" height="20" as="geometry" />
        </mxCell>
        <mxCell id="3Ay0K59js-raSexYKxOz-18" value="" style="sketch=0;points=[[0,0,0],[0.25,0,0],[0.5,0,0],[0.75,0,0],[1,0,0],[0,1,0],[0.25,1,0],[0.5,1,0],[0.75,1,0],[1,1,0],[0,0.25,0],[0,0.5,0],[0,0.75,0],[1,0.25,0],[1,0.5,0],[1,0.75,0]];outlineConnect=0;fontColor=#232F3E;fillColor=#ED7100;strokeColor=#ffffff;dashed=0;verticalLabelPosition=bottom;verticalAlign=top;align=center;html=1;fontSize=12;fontStyle=0;aspect=fixed;shape=mxgraph.aws4.resourceIcon;resIcon=mxgraph.aws4.ec2;" parent="3Ay0K59js-raSexYKxOz-13" vertex="1">
          <mxGeometry x="58" y="42" width="32" height="32" as="geometry" />
        </mxCell>
        <mxCell id="3Ay0K59js-raSexYKxOz-19" value="EC2" style="text;html=1;align=center;verticalAlign=middle;whiteSpace=wrap;rounded=0;" parent="3Ay0K59js-raSexYKxOz-13" vertex="1">
          <mxGeometry x="50" y="84" width="40" height="20" as="geometry" />
        </mxCell>
        <mxCell id="3Ay0K59js-raSexYKxOz-20" value="" style="sketch=0;points=[[0,0,0],[0.25,0,0],[0.5,0,0],[0.75,0,0],[1,0,0],[0,1,0],[0.25,1,0],[0.5,1,0],[0.75,1,0],[1,1,0],[0,0.25,0],[0,0.5,0],[0,0.75,0],[1,0.25,0],[1,0.5,0],[1,0.75,0]];outlineConnect=0;fontColor=#232F3E;fillColor=#ED7100;strokeColor=#ffffff;dashed=0;verticalLabelPosition=bottom;verticalAlign=top;align=center;html=1;fontSize=12;fontStyle=0;aspect=fixed;shape=mxgraph.aws4.resourceIcon;resIcon=mxgraph.aws4.ec2;" parent="3Ay0K59js-raSexYKxOz-13" vertex="1">
          <mxGeometry x="692" y="40" width="32" height="32" as="geometry" />
        </mxCell>
        <mxCell id="3Ay0K59js-raSexYKxOz-21" value="EC2" style="text;html=1;align=center;verticalAlign=middle;whiteSpace=wrap;rounded=0;" parent="3Ay0K59js-raSexYKxOz-13" vertex="1">
          <mxGeometry x="684" y="82" width="40" height="20" as="geometry" />
        </mxCell>
        <mxCell id="3Ay0K59js-raSexYKxOz-22" value="" style="sketch=0;points=[[0,0,0],[0.25,0,0],[0.5,0,0],[0.75,0,0],[1,0,0],[0,1,0],[0.25,1,0],[0.5,1,0],[0.75,1,0],[1,1,0],[0,0.25,0],[0,0.5,0],[0,0.75,0],[1,0.25,0],[1,0.5,0],[1,0.75,0]];outlineConnect=0;fontColor=#232F3E;fillColor=#ED7100;strokeColor=#ffffff;dashed=0;verticalLabelPosition=bottom;verticalAlign=top;align=center;html=1;fontSize=12;fontStyle=0;aspect=fixed;shape=mxgraph.aws4.resourceIcon;resIcon=mxgraph.aws4.ec2;" parent="3Ay0K59js-raSexYKxOz-13" vertex="1">
          <mxGeometry x="635" y="40" width="32" height="32" as="geometry" />
        </mxCell>
        <mxCell id="3Ay0K59js-raSexYKxOz-23" value="EC2" style="text;html=1;align=center;verticalAlign=middle;whiteSpace=wrap;rounded=0;" parent="3Ay0K59js-raSexYKxOz-13" vertex="1">
          <mxGeometry x="627" y="82" width="40" height="20" as="geometry" />
        </mxCell>
        <mxCell id="3Ay0K59js-raSexYKxOz-24" value="" style="sketch=0;points=[[0,0,0],[0.25,0,0],[0.5,0,0],[0.75,0,0],[1,0,0],[0,1,0],[0.25,1,0],[0.5,1,0],[0.75,1,0],[1,1,0],[0,0.25,0],[0,0.5,0],[0,0.75,0],[1,0.25,0],[1,0.5,0],[1,0.75,0]];outlineConnect=0;fontColor=#232F3E;fillColor=#ED7100;strokeColor=#ffffff;dashed=0;verticalLabelPosition=bottom;verticalAlign=top;align=center;html=1;fontSize=12;fontStyle=0;aspect=fixed;shape=mxgraph.aws4.resourceIcon;resIcon=mxgraph.aws4.ec2;" parent="3Ay0K59js-raSexYKxOz-13" vertex="1">
          <mxGeometry x="575" y="40" width="32" height="32" as="geometry" />
        </mxCell>
        <mxCell id="3Ay0K59js-raSexYKxOz-25" value="EC2" style="text;html=1;align=center;verticalAlign=middle;whiteSpace=wrap;rounded=0;" parent="3Ay0K59js-raSexYKxOz-13" vertex="1">
          <mxGeometry x="567" y="82" width="40" height="20" as="geometry" />
        </mxCell>
        <mxCell id="3Ay0K59js-raSexYKxOz-39" style="edgeStyle=orthogonalEdgeStyle;rounded=0;orthogonalLoop=1;jettySize=auto;html=1;" parent="3Ay0K59js-raSexYKxOz-10" source="3Ay0K59js-raSexYKxOz-19" target="3Ay0K59js-raSexYKxOz-11" edge="1">
          <mxGeometry relative="1" as="geometry">
            <Array as="points">
              <mxPoint x="81" y="293" />
            </Array>
          </mxGeometry>
        </mxCell>
        <mxCell id="3Ay0K59js-raSexYKxOz-41" value="Feedback from customers" style="text;strokeColor=none;align=center;fillColor=none;html=1;verticalAlign=middle;whiteSpace=wrap;rounded=0;" parent="3Ay0K59js-raSexYKxOz-10" vertex="1">
          <mxGeometry x="81" y="251" width="100" height="40" as="geometry" />
        </mxCell>
        <mxCell id="-YZ1gkalSg8VArunYoI3-4" value="10.0.1.0/24" style="text;strokeColor=none;align=center;fillColor=none;html=1;verticalAlign=middle;whiteSpace=wrap;rounded=0;" parent="3Ay0K59js-raSexYKxOz-10" vertex="1">
          <mxGeometry x="116" y="-167" width="94" height="30" as="geometry" />
        </mxCell>
        <mxCell id="-YZ1gkalSg8VArunYoI3-6" value="10.0.3.0/24" style="text;strokeColor=none;align=center;fillColor=none;html=1;verticalAlign=middle;whiteSpace=wrap;rounded=0;" parent="3Ay0K59js-raSexYKxOz-10" vertex="1">
          <mxGeometry x="136" y="4" width="60" height="30" as="geometry" />
        </mxCell>
        <mxCell id="3Ay0K59js-raSexYKxOz-26" value="Availability Zone A" style="fillColor=none;strokeColor=#147EBA;dashed=1;verticalAlign=top;fontStyle=0;fontColor=#147EBA;whiteSpace=wrap;html=1;" parent="3Ay0K59js-raSexYKxOz-10" vertex="1">
          <mxGeometry x="-24" y="-226" width="374" height="626" as="geometry" />
        </mxCell>
        <mxCell id="3Ay0K59js-raSexYKxOz-52" value="&lt;font style=&quot;font-size: 14px;&quot;&gt;SG&lt;/font&gt;" style="text;strokeColor=none;align=center;fillColor=none;html=1;verticalAlign=middle;whiteSpace=wrap;rounded=0;" parent="3Ay0K59js-raSexYKxOz-10" vertex="1">
          <mxGeometry x="181" y="134" width="60" height="30" as="geometry" />
        </mxCell>
        <mxCell id="3Ay0K59js-raSexYKxOz-53" value="&lt;font style=&quot;font-size: 14px;&quot;&gt;SG&lt;/font&gt;" style="text;strokeColor=none;align=center;fillColor=none;html=1;verticalAlign=middle;whiteSpace=wrap;rounded=0;" parent="3Ay0K59js-raSexYKxOz-10" vertex="1">
          <mxGeometry x="125" y="134" width="60" height="30" as="geometry" />
        </mxCell>
        <mxCell id="bgPWyI3wWr-Rr_kVg34M-1" value="&lt;font style=&quot;font-size: 14px;&quot;&gt;SG&lt;/font&gt;" style="text;strokeColor=none;align=center;fillColor=none;html=1;verticalAlign=middle;whiteSpace=wrap;rounded=0;" vertex="1" parent="3Ay0K59js-raSexYKxOz-10">
          <mxGeometry x="241" y="261" width="60" height="30" as="geometry" />
        </mxCell>
        <mxCell id="3Ay0K59js-raSexYKxOz-27" value="Public subnet 2" style="points=[[0,0],[0.25,0],[0.5,0],[0.75,0],[1,0],[1,0.25],[1,0.5],[1,0.75],[1,1],[0.75,1],[0.5,1],[0.25,1],[0,1],[0,0.75],[0,0.5],[0,0.25]];outlineConnect=0;html=1;whiteSpace=wrap;fontSize=12;fontStyle=0;container=1;pointerEvents=0;collapsible=0;recursiveResize=0;shape=mxgraph.aws4.group;grIcon=mxgraph.aws4.group_security_group;grStroke=0;verticalAlign=top;align=left;spacingLeft=30;dashed=0;fillColor=#1A1A1A;" parent="3Ay0K59js-raSexYKxOz-3" vertex="1">
          <mxGeometry x="570" y="40" width="310" height="150" as="geometry" />
        </mxCell>
        <mxCell id="3Ay0K59js-raSexYKxOz-28" value="" style="sketch=0;outlineConnect=0;fontColor=#232F3E;gradientColor=none;fillColor=#8C4FFF;strokeColor=none;dashed=0;verticalLabelPosition=bottom;verticalAlign=top;align=center;html=1;fontSize=12;fontStyle=0;aspect=fixed;pointerEvents=1;shape=mxgraph.aws4.nat_gateway;" parent="3Ay0K59js-raSexYKxOz-27" vertex="1">
          <mxGeometry x="30" y="50" width="45" height="45" as="geometry" />
        </mxCell>
        <mxCell id="3Ay0K59js-raSexYKxOz-29" value="Nat Gateway" style="text;html=1;align=center;verticalAlign=middle;whiteSpace=wrap;rounded=0;" parent="3Ay0K59js-raSexYKxOz-27" vertex="1">
          <mxGeometry x="7.5" y="100" width="90" height="30" as="geometry" />
        </mxCell>
        <mxCell id="-YZ1gkalSg8VArunYoI3-5" value="10.0.2.0/24" style="text;strokeColor=none;align=center;fillColor=none;html=1;verticalAlign=middle;whiteSpace=wrap;rounded=0;" parent="3Ay0K59js-raSexYKxOz-27" vertex="1">
          <mxGeometry x="135" width="85" height="30" as="geometry" />
        </mxCell>
        <mxCell id="-YZ1gkalSg8VArunYoI3-7" value="10.0.4.0/24" style="text;strokeColor=none;align=center;fillColor=none;html=1;verticalAlign=middle;whiteSpace=wrap;rounded=0;" parent="3Ay0K59js-raSexYKxOz-27" vertex="1">
          <mxGeometry x="138" y="169" width="80" height="30" as="geometry" />
        </mxCell>
        <mxCell id="3Ay0K59js-raSexYKxOz-30" style="edgeStyle=orthogonalEdgeStyle;rounded=0;orthogonalLoop=1;jettySize=auto;html=1;" parent="3Ay0K59js-raSexYKxOz-3" source="3Ay0K59js-raSexYKxOz-31" target="3Ay0K59js-raSexYKxOz-32" edge="1">
          <mxGeometry relative="1" as="geometry" />
        </mxCell>
        <mxCell id="3Ay0K59js-raSexYKxOz-31" value="Internet Gateway" style="text;strokeColor=none;align=center;fillColor=none;html=1;verticalAlign=middle;whiteSpace=wrap;rounded=0;" parent="3Ay0K59js-raSexYKxOz-3" vertex="1">
          <mxGeometry x="440" y="37" width="60" height="30" as="geometry" />
        </mxCell>
        <mxCell id="3Ay0K59js-raSexYKxOz-32" value="" style="sketch=0;outlineConnect=0;fontColor=#232F3E;gradientColor=none;fillColor=#8C4FFF;strokeColor=none;dashed=0;verticalLabelPosition=bottom;verticalAlign=top;align=center;html=1;fontSize=12;fontStyle=0;aspect=fixed;pointerEvents=1;shape=mxgraph.aws4.application_load_balancer;" parent="3Ay0K59js-raSexYKxOz-3" vertex="1">
          <mxGeometry x="445" y="115" width="50" height="50" as="geometry" />
        </mxCell>
        <mxCell id="3Ay0K59js-raSexYKxOz-33" style="edgeStyle=orthogonalEdgeStyle;rounded=0;orthogonalLoop=1;jettySize=auto;html=1;" parent="3Ay0K59js-raSexYKxOz-3" edge="1">
          <mxGeometry relative="1" as="geometry">
            <mxPoint x="469.0000000000002" y="200.0000000000001" as="sourcePoint" />
            <mxPoint x="469.521739130435" y="331" as="targetPoint" />
          </mxGeometry>
        </mxCell>
        <mxCell id="3Ay0K59js-raSexYKxOz-34" value="Application Load Balancer" style="text;html=1;align=center;verticalAlign=middle;whiteSpace=wrap;rounded=0;" parent="3Ay0K59js-raSexYKxOz-3" vertex="1">
          <mxGeometry x="421" y="170" width="100" height="30" as="geometry" />
        </mxCell>
        <mxCell id="-YZ1gkalSg8VArunYoI3-3" value="10.0.0.0/16" style="text;strokeColor=none;align=center;fillColor=none;html=1;verticalAlign=middle;whiteSpace=wrap;rounded=0;" parent="3Ay0K59js-raSexYKxOz-3" vertex="1">
          <mxGeometry x="54" width="80" height="30" as="geometry" />
        </mxCell>
        <mxCell id="3Ay0K59js-raSexYKxOz-43" style="edgeStyle=orthogonalEdgeStyle;rounded=0;orthogonalLoop=1;jettySize=auto;html=1;" parent="3Ay0K59js-raSexYKxOz-3" source="3Ay0K59js-raSexYKxOz-11" target="3Ay0K59js-raSexYKxOz-5" edge="1">
          <mxGeometry relative="1" as="geometry">
            <Array as="points">
              <mxPoint x="545" y="503" />
              <mxPoint x="545" y="503" />
            </Array>
          </mxGeometry>
        </mxCell>
        <mxCell id="3Ay0K59js-raSexYKxOz-44" value="Backup" style="text;strokeColor=none;align=center;fillColor=none;html=1;verticalAlign=middle;whiteSpace=wrap;rounded=0;" parent="3Ay0K59js-raSexYKxOz-3" vertex="1">
          <mxGeometry x="434" y="473" width="60" height="30" as="geometry" />
        </mxCell>
        <mxCell id="3Ay0K59js-raSexYKxOz-35" value="" style="sketch=0;outlineConnect=0;fontColor=#232F3E;gradientColor=none;fillColor=#8C4FFF;strokeColor=none;dashed=0;verticalLabelPosition=bottom;verticalAlign=top;align=center;html=1;fontSize=12;fontStyle=0;aspect=fixed;pointerEvents=1;shape=mxgraph.aws4.internet_gateway;" parent="3Ay0K59js-raSexYKxOz-3" vertex="1">
          <mxGeometry x="440.5" y="-29" width="59" height="59" as="geometry" />
        </mxCell>
        <mxCell id="3Ay0K59js-raSexYKxOz-47" value="Availability Zone B" style="fillColor=none;strokeColor=#147EBA;dashed=1;verticalAlign=top;fontStyle=0;fontColor=#147EBA;whiteSpace=wrap;html=1;" parent="1" vertex="1">
          <mxGeometry x="-516" y="141" width="374" height="626" as="geometry" />
        </mxCell>
        <mxCell id="3Ay0K59js-raSexYKxOz-49" value="" style="shape=actor;whiteSpace=wrap;html=1;" parent="1" vertex="1">
          <mxGeometry x="-616" y="14" width="40" height="60" as="geometry" />
        </mxCell>
        <mxCell id="3Ay0K59js-raSexYKxOz-51" style="edgeStyle=orthogonalEdgeStyle;rounded=0;orthogonalLoop=1;jettySize=auto;html=1;" parent="1" source="3Ay0K59js-raSexYKxOz-50" target="3Ay0K59js-raSexYKxOz-35" edge="1">
          <mxGeometry relative="1" as="geometry" />
        </mxCell>
        <mxCell id="3Ay0K59js-raSexYKxOz-50" value="USER" style="text;strokeColor=none;align=center;fillColor=none;html=1;verticalAlign=middle;whiteSpace=wrap;rounded=0;" parent="1" vertex="1">
          <mxGeometry x="-626" y="44" width="60" height="30" as="geometry" />
        </mxCell>
        <mxCell id="3Ay0K59js-raSexYKxOz-54" value="&lt;font style=&quot;font-size: 14px;&quot;&gt;SG&lt;/font&gt;" style="text;strokeColor=none;align=center;fillColor=none;html=1;verticalAlign=middle;whiteSpace=wrap;rounded=0;" parent="1" vertex="1">
          <mxGeometry x="-948" y="500" width="60" height="30" as="geometry" />
        </mxCell>
        <mxCell id="3Ay0K59js-raSexYKxOz-55" value="&lt;font style=&quot;font-size: 14px;&quot;&gt;SG&lt;/font&gt;" style="text;strokeColor=none;align=center;fillColor=none;html=1;verticalAlign=middle;whiteSpace=wrap;rounded=0;" parent="1" vertex="1">
          <mxGeometry x="-313" y="500" width="60" height="30" as="geometry" />
        </mxCell>
        <mxCell id="3Ay0K59js-raSexYKxOz-56" value="&lt;font style=&quot;font-size: 14px;&quot;&gt;SG&lt;/font&gt;" style="text;strokeColor=none;align=center;fillColor=none;html=1;verticalAlign=middle;whiteSpace=wrap;rounded=0;" parent="1" vertex="1">
          <mxGeometry x="-369" y="500" width="60" height="30" as="geometry" />
        </mxCell>
        <mxCell id="3Ay0K59js-raSexYKxOz-57" value="&lt;font style=&quot;font-size: 14px;&quot;&gt;SG&lt;/font&gt;" style="text;strokeColor=none;align=center;fillColor=none;html=1;verticalAlign=middle;whiteSpace=wrap;rounded=0;" parent="1" vertex="1">
          <mxGeometry x="-430" y="500" width="60" height="30" as="geometry" />
        </mxCell>
        <mxCell id="bgPWyI3wWr-Rr_kVg34M-2" value="&lt;font style=&quot;font-size: 14px;&quot;&gt;SG&lt;/font&gt;" style="text;strokeColor=none;align=center;fillColor=none;html=1;verticalAlign=middle;whiteSpace=wrap;rounded=0;" vertex="1" parent="1">
          <mxGeometry x="-410" y="630" width="60" height="30" as="geometry" />
        </mxCell>
      </root>
    </mxGraphModel>
  </diagram>
</mxfile>
